<?xml version="1.0" standalone="no"?>
<!DOCTYPE svg PUBLIC "-//W3C//DTD SVG 20010904//EN"
 "http://www.w3.org/TR/2001/REC-SVG-20010904/DTD/svg10.dtd">
<svg version="1.0" xmlns="http://www.w3.org/2000/svg"
 width="819.000000pt" height="331.000000pt" viewBox="0 0 819.000000 331.000000"
 preserveAspectRatio="xMidYMid meet">

<g transform="translate(0.000000,331.000000) scale(0.100000,-0.100000)"
fill="#000000" stroke="none">
<path d="M1510 1930 l0 -830 120 0 120 0 -2 828 -3 827 -117 3 -118 3 0 -831z"/>
<path d="M750 2380 l0 -250 120 0 120 0 0 250 0 250 -120 0 -120 0 0 -250z"/>
<path d="M5890 2205 l0 -195 -51 39 c-73 55 -141 74 -242 69 -103 -6 -164 -35
-234 -111 -61 -67 -93 -146 -100 -247 -13 -187 67 -339 216 -409 47 -22 70
-26 141 -26 98 1 169 27 237 89 22 20 43 36 47 36 3 0 6 -25 6 -55 l0 -55 95
0 95 0 0 530 0 530 -105 0 -105 0 0 -195z m-109 -255 c79 -41 126 -141 117
-253 -12 -144 -114 -239 -240 -224 -63 8 -104 32 -145 85 -89 117 -53 326 66
389 58 30 145 32 202 3z"/>
<path d="M362 1383 l3 -828 118 -3 117 -3 0 831 0 830 -120 0 -120 0 2 -827z"/>
<path d="M1130 1965 l0 -245 120 0 120 0 0 245 0 245 -120 0 -120 0 0 -245z"/>
<path d="M2853 2120 c-66 -10 -129 -40 -187 -91 l-46 -41 0 56 0 56 -95 0 -95
0 0 -550 0 -550 105 0 105 0 0 221 0 221 47 -41 c128 -114 344 -103 467 24
182 186 135 549 -84 660 -41 21 -67 28 -145 39 -11 2 -43 0 -72 -4z m73 -161
c39 -12 98 -73 119 -123 10 -23 16 -67 16 -113 0 -142 -74 -238 -194 -250 -48
-5 -64 -2 -110 21 -89 43 -127 114 -127 237 0 52 6 77 28 119 55 109 146 146
268 109z"/>
<path d="M7447 2120 c-205 -37 -287 -239 -154 -378 43 -45 85 -66 198 -97 137
-39 172 -68 150 -128 -29 -76 -205 -76 -354 -1 -35 18 -48 21 -51 12 -8 -26
-26 -107 -26 -117 0 -6 22 -22 50 -36 160 -81 395 -70 493 23 58 55 86 150 67
224 -26 95 -90 143 -264 194 -136 40 -169 72 -136 134 25 47 165 49 275 5 32
-14 60 -23 60 -22 1 1 9 30 17 64 l15 62 -46 19 c-95 41 -209 57 -294 42z"/>
<path d="M3625 2100 c-159 -62 -252 -247 -224 -445 40 -283 319 -421 551 -273
26 16 57 42 68 56 l19 27 1 -40 c1 -84 2 -85 101 -85 l89 0 0 380 0 380 -89 0
c-99 0 -101 -1 -101 -72 l0 -40 -50 46 c-28 24 -76 54 -106 65 -72 28 -189 28
-259 1z m271 -141 c39 -12 98 -73 120 -124 10 -25 17 -67 17 -112 0 -59 -5
-81 -29 -130 -91 -181 -332 -156 -394 41 -16 51 -8 171 15 216 54 107 149 146
271 109z"/>
<path d="M4750 2098 c-35 -14 -73 -39 -107 -74 l-53 -53 0 42 c0 86 -1 87
-101 87 l-89 0 0 -380 0 -380 100 0 100 0 0 225 c0 246 5 272 58 328 59 63
157 85 222 52 60 -31 65 -53 68 -342 l3 -263 106 0 105 0 -4 278 c-5 258 -7
281 -28 337 -27 72 -88 135 -147 153 -63 19 -170 14 -233 -10z"/>
<path d="M6457 2105 c-153 -56 -246 -220 -235 -414 6 -102 39 -187 99 -255
124 -142 352 -152 497 -22 45 41 52 36 52 -35 l0 -39 90 0 90 0 0 380 0 380
-90 0 -90 0 0 -39 c0 -73 -7 -76 -59 -28 -64 60 -139 87 -239 86 -42 0 -94 -7
-115 -14z m299 -167 c150 -102 132 -376 -31 -449 -158 -72 -322 70 -301 263
14 139 95 218 222 218 53 0 69 -5 110 -32z"/>
<path d="M750 1350 l0 -250 120 0 120 0 0 250 0 250 -120 0 -120 0 0 -250z"/>
<path d="M1130 1455 l0 -115 120 0 120 0 0 115 0 115 -120 0 -120 0 0 -115z"/>
<path d="M1130 940 l0 -250 120 0 120 0 0 250 0 250 -120 0 -120 0 0 -250z"/>
</g>
</svg>
